<?xml version="1.0" standalone="no"?>
<!DOCTYPE svg PUBLIC "-//W3C//DTD SVG 20010904//EN"
 "http://www.w3.org/TR/2001/REC-SVG-20010904/DTD/svg10.dtd">
<svg version="1.0" xmlns="http://www.w3.org/2000/svg"
 width="260.000000pt" height="260.000000pt" viewBox="0 0 260.000000 260.000000"
 preserveAspectRatio="xMidYMid meet">
<metadata>
Created by potrace 1.11, written by Peter Selinger 2001-2013
</metadata>
<g transform="translate(0.000000,260.000000) scale(0.100000,-0.100000)"
fill="#000000" stroke="none">
<path d="M2122 2587 c-43 -16 -99 -62 -122 -100 -18 -29 -20 -30 -92 -28 -136
3 -249 -42 -351 -142 -95 -95 -159 -263 -141 -374 l6 -38 -65 -28 c-80 -35
-160 -115 -203 -202 -26 -55 -29 -69 -29 -165 l0 -105 -42 -2 c-104 -5 -192
-53 -246 -136 -48 -72 -60 -117 -55 -200 10 -192 175 -324 367 -294 144 21
260 151 264 293 l2 55 65 -7 c164 -16 326 78 400 231 16 33 32 81 36 108 6 43
8 47 34 47 54 0 158 40 217 84 174 128 246 318 195 515 l-17 64 31 33 c44 46
64 94 64 156 0 73 -14 116 -52 162 -60 73 -177 105 -266 73z"/>
<path d="M680 851 c-227 -46 -262 -359 -52 -453 156 -70 333 46 333 217 0 148
-138 264 -281 236z"/>
<path d="M281 330 c-73 -17 -121 -80 -121 -160 0 -137 159 -202 265 -109 67
59 70 151 9 219 -19 21 -47 41 -62 44 -15 4 -34 8 -42 10 -8 2 -30 0 -49 -4z"/>
</g>
</svg>
